<svg xmlns="http://www.w3.org/2000/svg" viewBox="0 0 35.92 36.51"><defs><style>.cls-1{fill:#facec3;}</style></defs><g id="Layer_2" data-name="Layer 2"><g id="Layer_1-2" data-name="Layer 1"><g id="LANDING_PAGE_-_10_FREE_TIPS_TO_SLEEP" data-name="LANDING PAGE - 10 FREE TIPS TO SLEEP"><g id="Grupo_91" data-name="Grupo 91"><g id="Grupo_59" data-name="Grupo 59"><path id="Trazado_190" data-name="Trazado 190" class="cls-1" d="M23.33,4.35c12.29-2,8.23,12,8.23,19.76S24.72,35.38,17,35.38,6.1,30.16,6.1,22.43,11.05,6.37,23.33,4.35Z"/><path id="Trazado_180" data-name="Trazado 180" d="M27.14,10.32A12.35,12.35,0,0,0,23,7.38a.64.64,0,0,0-.83.33.61.61,0,0,0,0,.46A11.09,11.09,0,0,1,7.3,22a.63.63,0,0,0-.83.33.58.58,0,0,0,0,.45,12.34,12.34,0,0,0,11.23,8.29h.44a12.34,12.34,0,0,0,9-20.76Zm2.05,8.8a11.09,11.09,0,0,1-21,4.53A12.34,12.34,0,0,0,23.71,9.16a11.11,11.11,0,0,1,5.48,10Z"/><path id="Trazado_181" data-name="Trazado 181" d="M29.32,28.94a.62.62,0,0,0-.89,0,.64.64,0,0,0,0,.89l1.34,1.34a.64.64,0,0,0,.89,0,.62.62,0,0,0,0-.89Z"/><path id="Trazado_182" data-name="Trazado 182" d="M29.76,5.35,28.42,6.68a.65.65,0,0,0,0,.9.64.64,0,0,0,.89,0l1.34-1.34a.63.63,0,0,0-.89-.89Z"/><path id="Trazado_183" data-name="Trazado 183" d="M18,33.36a.63.63,0,0,0-.63.63h0v1.89a.63.63,0,0,0,1.26,0V34a.63.63,0,0,0-.63-.63Z"/><path id="Trazado_184" data-name="Trazado 184" d="M35.29,17.63H33.4a.63.63,0,0,0-.63.62.64.64,0,0,0,.63.64h1.89a.64.64,0,0,0,.63-.64A.63.63,0,0,0,35.29,17.63Z"/><path id="Trazado_185" data-name="Trazado 185" d="M6.6,7.58a.64.64,0,0,0,.89,0,.65.65,0,0,0,0-.9L6.15,5.35a.63.63,0,0,0-.89.89h0Z"/><path id="Trazado_186" data-name="Trazado 186" d="M6.6,28.94,5.26,30.28a.62.62,0,0,0,0,.89.64.64,0,0,0,.89,0l1.34-1.34a.64.64,0,0,0,0-.89.62.62,0,0,0-.89,0Z"/><path id="Trazado_187" data-name="Trazado 187" d="M18,3.15a.63.63,0,0,0,.63-.63V.63a.63.63,0,1,0-1.26,0V2.52a.63.63,0,0,0,.63.63Z"/><path id="Trazado_188" data-name="Trazado 188" d="M2.52,17.63H.63a.63.63,0,0,0-.63.62.64.64,0,0,0,.63.64H2.52a.64.64,0,0,0,.63-.64.63.63,0,0,0-.63-.62Z"/></g></g></g></g></g></svg>