<svg xmlns="http://www.w3.org/2000/svg" viewBox="0 0 27.22 30.37"><defs><style>.cls-1{fill:#c0bee0;}.cls-2{fill-rule:evenodd;}</style></defs><g id="Layer_2" data-name="Layer 2"><g id="Layer_1-2" data-name="Layer 1"><g id="LANDING_PAGE_-_10_FREE_TIPS_TO_SLEEP" data-name="LANDING PAGE - 10 FREE TIPS TO SLEEP"><g id="Grupo_92" data-name="Grupo 92"><g id="Grupo_57" data-name="Grupo 57"><path id="Trazado_191" data-name="Trazado 191" class="cls-1" d="M8,30.34C-4.41,31.06,1.1,17.51,1.92,9.82S9.9-.68,17.6.14s10.29,6.33,9.47,14S20.47,29.62,8,30.34Z"/><path id="Trazado_174" data-name="Trazado 174" class="cls-2" d="M21.14,28.38H7.38a.83.83,0,0,1-.83-.83h0V23.8H22v3.75A.84.84,0,0,1,21.14,28.38ZM7.38.86H21.14a.84.84,0,0,1,.84.83h0V3.78H6.55V1.69A.83.83,0,0,1,7.38.86ZM6.55,23H22V4.61H6.55ZM21.14,0H7.38A1.67,1.67,0,0,0,5.71,1.69h0V27.55a1.67,1.67,0,0,0,1.67,1.67H21.14a1.67,1.67,0,0,0,1.67-1.67h0V1.69A1.67,1.67,0,0,0,21.15,0Z"/><path id="Trazado_175" data-name="Trazado 175" class="cls-2" d="M15,26.09a.7.7,0,1,1-.7-.7.7.7,0,0,1,.7.7Zm-.7-1.54a1.54,1.54,0,1,0,1.53,1.54h0a1.54,1.54,0,0,0-1.54-1.54h0Z"/><path id="Trazado_176" data-name="Trazado 176" class="cls-2" d="M12.59,2.84h3.34a.42.42,0,0,0,.42-.42A.41.41,0,0,0,15.93,2H12.59a.41.41,0,0,0-.41.41.41.41,0,0,0,.41.42"/></g></g></g></g></g></svg>