<svg xmlns="http://www.w3.org/2000/svg" viewBox="0 0 31.01 29.09"><defs><style>.cls-1{fill:#dceac5;}.cls-2{fill-rule:evenodd;}</style></defs><g id="Layer_2" data-name="Layer 2"><g id="Layer_1-2" data-name="Layer 1"><g id="LANDING_PAGE_-_10_FREE_TIPS_TO_SLEEP" data-name="LANDING PAGE - 10 FREE TIPS TO SLEEP"><g id="Grupo_93" data-name="Grupo 93"><path id="Trazado_192" data-name="Trazado 192" class="cls-1" d="M25.15,1.23c12,3.35,2.38,14.37-.89,21.38s-11,7.32-18,4.05-7.66-9.33-4.4-16.34S13.16-2.14,25.15,1.23Z"/><path id="Trazado_178" data-name="Trazado 178" class="cls-2" d="M26.77,11.85l-6.6,6.6L11.43,9.71,18,3.11a6.18,6.18,0,0,1,8.74,8.74ZM12.65,26a6.18,6.18,0,0,1-8.74-8.73l6.6-6.6,8.74,8.73ZM22.4,0a7.44,7.44,0,0,0-5.29,2.19L3,16.31A7.48,7.48,0,0,0,13.57,26.9L27.69,12.78A7.49,7.49,0,0,0,22.4,0Z"/></g></g></g></g></svg>