<svg xmlns="http://www.w3.org/2000/svg" viewBox="0 0 144.01 147.43"><defs><style>.cls-1{fill:#c0bee0;}.cls-1,.cls-10,.cls-11,.cls-12,.cls-13,.cls-14,.cls-15,.cls-16,.cls-17,.cls-18,.cls-19,.cls-2,.cls-20,.cls-21,.cls-22,.cls-3,.cls-4,.cls-5,.cls-6,.cls-7,.cls-8,.cls-9{fill-rule:evenodd;}.cls-2{fill:#4c6070;}.cls-3{fill:#15364d;}.cls-4{fill:#637c90;}.cls-5{fill:#4a95ff;}.cls-6{fill:#dee8f5;}.cls-7{fill:#fff;}.cls-8{fill:#1d113d;}.cls-9{fill:#99a2a0;}.cls-10{fill:#b9c6c6;}.cls-12{fill:#f0f0f0;}.cls-13{fill:#1877c4;}.cls-14{fill:#275475;}.cls-15{fill:#c2c2c2;}.cls-16{fill:#ff9c89;}.cls-17{fill:#ef7263;}.cls-18{fill:#fac6bf;}.cls-19{fill:#7e1c97;}.cls-20{fill:#dfdfdf;}.cls-21{fill:#bfbfbf;}.cls-22{fill:#ffcf76;}</style></defs><g id="Layer_2" data-name="Layer 2"><g id="Layer_1-2" data-name="Layer 1"><g id="LANDING_PAGE_-_10_FREE_TIPS_TO_SLEEP" data-name="LANDING PAGE - 10 FREE TIPS TO SLEEP"><g id="no-sleep"><path id="Trazado_254" data-name="Trazado 254" class="cls-1" d="M74.94,144.56c37.79,0,68.43-32.17,68.43-71.84S102.1,20.25,77.13,6.42,13.3-.87,7.75,45.74,37.14,144.56,74.94,144.56Z"/><path id="Trazado_255" data-name="Trazado 255" class="cls-2" d="M10,109.45V113h1.68l1.9-3.58Z"/><path id="Trazado_256" data-name="Trazado 256" class="cls-3" d="M13,110.17l.58-1.43H10v1.43Z"/><path id="Trazado_257" data-name="Trazado 257" class="cls-2" d="M27.23,109.45V113H25.55l-1.9-3.58Z"/><path id="Trazado_258" data-name="Trazado 258" class="cls-3" d="M24.23,110.17l-.58-1.43h3.58v1.43Z"/><path id="Trazado_259" data-name="Trazado 259" class="cls-4" d="M8.6,108.74H28.66V90.11H8.6Z"/><path id="Trazado_260" data-name="Trazado 260" class="cls-3" d="M12.5,96.22H26.2V93.31H12.5Zm-.31.34H26.51V93H12.19Z"/><path id="Trazado_261" data-name="Trazado 261" class="cls-3" d="M12.5,105.55H26.2V96.88H12.5Zm-.31.32H26.51V96.56H12.19Z"/><path id="Trazado_262" data-name="Trazado 262" class="cls-3" d="M20.07,95.12a.72.72,0,1,1-.72-.71.72.72,0,0,1,.72.71"/><path id="Trazado_263" data-name="Trazado 263" class="cls-3" d="M20.07,99.42a.72.72,0,1,1-.72-.71.72.72,0,0,1,.72.71"/><path id="Trazado_264" data-name="Trazado 264" class="cls-5" d="M15.91,71a13.85,13.85,0,0,0-.65,3.32c-.08-.31-.17-.63-.28-.93a8.79,8.79,0,0,0-1.68-2.64l-1.16-1.4a3.58,3.58,0,0,0,3.56-3.61,3.23,3.23,0,0,0-.07-.69,4,4,0,0,0-1.22-2.6l.07,0a2.67,2.67,0,0,0,2.79-.88A30.62,30.62,0,0,1,15.91,71m5.53-11.93,0-.15h0c-.92,2.16-2.23,1.53-2.23,1.53-.73-.41,1.42-.08,1.83-2.39l-.35-.51,0,0-.28-.32a3.69,3.69,0,0,1-.18.65,3.57,3.57,0,0,1-.47.91c-.14.17-.87.5-1.09.32s.81-1.52,1-2a2.34,2.34,0,0,0,.14-.58l-.35-.34-.05,0-.39-.37c-.09.84-.35,2-1.1,1.68-.5-.48.85-.73.49-2.28-.14-.16-.29-.35-.46-.56l-.11-.14L17.37,54c-.05.68-.21,1.81-.89,1.57-.29-.12.86-1.26.27-2.2a3.11,3.11,0,0,0-.28-.23l0,0a1.34,1.34,0,0,0-.84-.29H15.5a1.11,1.11,0,0,0-.7.47,2.64,2.64,0,0,0-.43.7h0c.3.41.8.57.82,1.1-.1.2-.58-.06-1-.68-.06.2-.11.4-.16.61v.08c0,.12,0,.23-.07.35a4.45,4.45,0,0,0,.48.49c.44.37,1.19.7,1.39,1.28,0,.52-1.4-.58-2-1.3,0,.15-.08.3-.13.44l0,.08c-.05.14-.1.28-.16.42l.44.35c1.19.93,1.76.4,1.94,1.08-.15.66-1.39.23-2.64-.82l-.22.54-.05.12a1.19,1.19,0,0,0-.08.2l.51.27c.76.29,1.44.16,2,.54s.3.38.12.45a2.88,2.88,0,0,1-1.48-.18,6.32,6.32,0,0,1-1.4-.44,3.53,3.53,0,0,0-.1.85V60a3,3,0,0,0,.17,1l.39.06a3.92,3.92,0,0,0,1.48-.13c.22-.08,1-.5,1.17-.4,1,.42-1.42,1.24-1.78,1.27l-.72.1a2.26,2.26,0,0,0,.62.44c.92,3.37-1.23,3.9-1.23,3.9-1.33.24,1.67-1.53-.2-4.79a8.62,8.62,0,0,0-1-.27l-.1,0c-.22,0-.45-.09-.67-.12a6.65,6.65,0,0,1,.44,1,5.53,5.53,0,0,1,.35,1.6c0,.36-.55,1.5-1,1.49s-.57-2.69-.84-3.38a3.92,3.92,0,0,0-.43-.87l-.78-.06H8.44l-.86-.06c.77,1.12,1.67,2.86.38,3.18-1.11-.09.3-1.75-1.74-3.32-.33,0-.71-.13-1.13-.22l-.29-.06-.88-.16c.64.89,1.61,2.44.52,2.83-.48.14-.23-2.42-1.93-3a5.32,5.32,0,0,0-.57,0h-.1a2.31,2.31,0,0,0-1.34.49l-.1.1A1.76,1.76,0,0,0,0,61.81,4.61,4.61,0,0,0,.2,63.09h0c.79.2,1.57-.1,2.15.53.08.34-.78.51-1.93.15.13.31.28.62.44.92l.06.12.27.49a6.73,6.73,0,0,0,1.1.12c.92,0,2.18-.33,3,.18.58.61-2.34.7-3.77.38a6.68,6.68,0,0,1,.31.67l.05.12.24.68c.3,0,.6,0,.89,0,2.43,0,2.59-1.28,3.52-.61.48,1-1.49,1.68-4.1,1.64.08.3.17.6.26.89,0,.07,0,.13.07.2s.07.22.11.33l.92-.18c1.22-.4,1.94-1.24,3.08-1.4s.77.17.61.45c-.36.62-1.35.94-2,1.26a10.87,10.87,0,0,1-2.19.87A6.68,6.68,0,0,0,4.09,72l.11.12a5.66,5.66,0,0,0,1.24,1c.18-.1.36-.2.53-.31a6.51,6.51,0,0,0,1.7-1.65c.2-.33.66-1.58,1-1.68,1.64-.45-.49,3-.9,3.36L7,73.76a3.57,3.57,0,0,0,1.38-.1l.37-.12L9,73.42c1.32-.58,3-2.5,2.48-4.11h.05l1.32,1.6a8.36,8.36,0,0,1,1.77,2.87c.33,1.08.5,2.21.73,3.31l.07.33a6.87,6.87,0,0,1-.18,2.63c-.08.26.33.37.41.11a4.52,4.52,0,0,0,.17-.83l.27,1.3c.06.27.47.16.41-.11l-.66-3.18c-.05-.55-.12-1.1-.18-1.65a9.41,9.41,0,0,1,.05-2.37A19.62,19.62,0,0,1,16.36,71a30.61,30.61,0,0,0,1.33-9.17,2.28,2.28,0,0,0,3.18-.51c.05-.08.11-.17.15-.25a2.48,2.48,0,0,0,.42-2"/><path id="Trazado_265" data-name="Trazado 265" class="cls-6" d="M13.14,77.21l1,8.16a2.49,2.49,0,0,0,2.48,2.17h1.31l-.31,2.57h-5.3l-1.56-12.9Z"/><path id="Trazado_266" data-name="Trazado 266" class="cls-7" d="M14.56,85.13l-.94-7.92h5.73l-1.19,10H16.92a2.38,2.38,0,0,1-2.36-2.11"/><path id="Trazado_267" data-name="Trazado 267" class="cls-2" d="M125.38,109.45V113h1.68l1.9-3.58Z"/><path id="Trazado_268" data-name="Trazado 268" class="cls-8" d="M128.38,110.17l.58-1.43h-3.58v1.43Z"/><path id="Trazado_269" data-name="Trazado 269" class="cls-2" d="M141.86,109.45V113h-1.68l-1.9-3.58Z"/><path id="Trazado_270" data-name="Trazado 270" class="cls-3" d="M138.86,110.17l-.58-1.43h3.58v1.43Z"/><path id="Trazado_271" data-name="Trazado 271" class="cls-4" d="M124,108.74H144V90.11H124Z"/><path id="Trazado_272" data-name="Trazado 272" class="cls-3" d="M127.13,96.22h13.7V93.31h-13.7Zm-.32.34h14.33V93H126.81Z"/><path id="Trazado_273" data-name="Trazado 273" class="cls-3" d="M127.13,105.55h13.7V96.88h-13.7Zm-.32.32h14.33V96.56H126.81Z"/><path id="Trazado_274" data-name="Trazado 274" class="cls-3" d="M134.69,95.12a.72.72,0,1,1-.71-.71.71.71,0,0,1,.71.71"/><path id="Trazado_275" data-name="Trazado 275" class="cls-3" d="M134.69,99.42a.72.72,0,1,1-.71-.71.71.71,0,0,1,.71.71"/><path id="Trazado_276" data-name="Trazado 276" class="cls-9" d="M138.77,88H128.25a.69.69,0,0,0-.72.67v.81a.69.69,0,0,0,.72.67H139a1.83,1.83,0,0,1-.23-2.15"/><path id="Trazado_277" data-name="Trazado 277" class="cls-6" d="M139,88.68H129v1.43h10a4.9,4.9,0,0,1,0-1.43"/><path id="Trazado_278" data-name="Trazado 278" class="cls-10" d="M129.13,88H137a.62.62,0,0,0,.54-.67v-.81a.62.62,0,0,0-.54-.67H129a2.28,2.28,0,0,1,.17,2.15"/><path id="Trazado_279" data-name="Trazado 279" class="cls-6" d="M129,87.24h7.14v-.71H129a1.7,1.7,0,0,1,0,.71"/><path id="Trazado_280" data-name="Trazado 280" class="cls-11" d="M65.93,141.6a1.93,1.93,0,0,1-1.72,1.1,3.92,3.92,0,0,1-2.35-.45,1.83,1.83,0,0,1-.91-1.52,1.75,1.75,0,0,1,.91-1.53.57.57,0,0,0,.13-.08h0c-4.18-.8-10.74.22-14.73,1.66a2.43,2.43,0,0,0-1.35.91l-2.21.39a.87.87,0,0,0,.47.39c2.17,1,4.78.44,7.09,1.06a1.69,1.69,0,0,1,.8.4c.35.38.3,1,.56,1.39A1.62,1.62,0,0,0,54,146a5.17,5.17,0,0,0,1.56-.28c3.5-1,7-2.06,10.44-3.22a6,6,0,0,0,2.1-1Z"/><path id="Trazado_281" data-name="Trazado 281" class="cls-4" d="M117.5,87.24H33.68V76.9A19.57,19.57,0,0,1,53.06,57.15H98.12A19.57,19.57,0,0,1,117.5,76.9Z"/><path id="Trazado_282" data-name="Trazado 282" class="cls-3" d="M36.91,86.87h77.36v-11A16.15,16.15,0,0,0,98.2,59.67H53A16.15,16.15,0,0,0,36.91,75.86Zm77.72.37H36.54V75.86A16.52,16.52,0,0,1,53,59.3H98.2a16.51,16.51,0,0,1,16.43,16.56Z"/><path id="Trazado_283" data-name="Trazado 283" class="cls-2" d="M28,131.66h4.3V115.18H28Z"/><path id="Trazado_284" data-name="Trazado 284" class="cls-3" d="M28,122.35h4.3v-7.17H28Z"/><path id="Trazado_285" data-name="Trazado 285" class="cls-2" d="M126.1,131.66h4.3V115.18h-4.3Z"/><path id="Trazado_286" data-name="Trazado 286" class="cls-3" d="M126.1,122.35h4.3v-7.17h-4.3Z"/><path id="Trazado_287" data-name="Trazado 287" class="cls-4" d="M22.22,118.77H132.54v-7.89H22.22Z"/><path id="Trazado_288" data-name="Trazado 288" class="cls-2" d="M22.22,118.77H132.54V115.9H22.22Z"/><path id="Trazado_289" data-name="Trazado 289" class="cls-6" d="M25.8,110.17H128.25V94.41H25.8Z"/><path id="Trazado_290" data-name="Trazado 290" class="cls-12" d="M119.63,85.05a2.35,2.35,0,0,0-1.64-.67H35.86a1.88,1.88,0,0,0-1.31.53L25.8,93.69H128.25Z"/><path id="Trazado_291" data-name="Trazado 291" class="cls-7" d="M70.26,83.49c1.84-5.59-.57-14.36-1.61-14.8S54.18,70,50.85,70H40.05S37.87,75.82,38,80.75s2.75,3.4,2.75,3.4Z"/><path id="Trazado_292" data-name="Trazado 292" class="cls-6" d="M67.73,69.42c-1.69.5-1,3-1.16,4.22-.38,4.17-5,4.57-8.57,4.54a33.48,33.48,0,0,1-7.56-1.33,48.68,48.68,0,0,0-8.81-1.39c-1-.07-2.11-.15-3.2-.19A23.87,23.87,0,0,0,38,80c.11,4.93,2.75,3.4,2.75,3.4l29.53-.66c1.39-4.23.34-10.27-.69-13.15a2.7,2.7,0,0,0-1.85-.21"/><path id="Trazado_293" data-name="Trazado 293" class="cls-5" d="M125.7,129.38a7.5,7.5,0,0,0-1.79-1.63c-2.82-2.29-4-6.66-4.27-10.77s.12-8.29-.43-12.36c-.51-3.79-2.41-9.83-5.22-11.81l-.11-.12a9.32,9.32,0,0,0-4.31-2.45,14.43,14.43,0,0,0-5.95-.47A32.13,32.13,0,0,0,98,91.34a54.84,54.84,0,0,1-6.67,1.6c-.24,0-.47-.11-.7-.18-1.71-.56-9.2-.31-18.13.07a21,21,0,0,0-2.87-3.16,29.1,29.1,0,0,0-11.57-6l-3.41,2c-1.58,2.65-4.7,4-7.75,4.49s-6.16.11-9.24.14-6.32.48-8.83,2.28c-.5.36-1,.91-.88,1.52a1.64,1.64,0,0,0,.57.78,12.12,12.12,0,0,0,2.54,1.7,18.73,18.73,0,0,0,5.55,1.86,75.87,75.87,0,0,0,15.18,1.5c8.07,0,16.63-1.22,23.8,3.33,7.64,4.86,11.83,15.13,18.33,22,8.35,8.9,20.78,11.67,31.17,6.92a2.1,2.1,0,0,0,.6-.38,2.17,2.17,0,0,0,0-2.48"/><path id="Trazado_294" data-name="Trazado 294" class="cls-13" d="M71.26,99.62a18.58,18.58,0,0,1,11.1,6.1c.39.45,1-.22.63-.66A19.34,19.34,0,0,0,71.5,98.71c-.56-.08-.81.82-.24.9"/><path id="Trazado_295" data-name="Trazado 295" class="cls-13" d="M110.74,94.85a44.9,44.9,0,0,0-21.81-3c-.75.08-1.5.19-2.24.31.45.27.9.54,1.36.8a44.1,44.1,0,0,1,16.58,1,44.77,44.77,0,0,1,5.87,1.93c.55.23.79-.73.24-1"/><path id="Trazado_296" data-name="Trazado 296" class="cls-13" d="M44.86,95.11c5,.06,9.93-.1,14.9-.45.56,0,.57-1,0-1q-7.45.54-14.9.46c-.58,0-.58,1,0,1"/><path id="Trazado_297" data-name="Trazado 297" class="cls-13" d="M102.07,84.38,100,87.85q3,.77,6,1.65c.31.1.67.23.78.54a.86.86,0,0,1-.06.61c-.5,1.24-1.9,1.85-3.16,2.33a21.22,21.22,0,0,1-3.65,1.16,21.32,21.32,0,0,1-4.44.26L57.15,94a5.34,5.34,0,0,1-2.34-.38,1.77,1.77,0,0,1-1-1.93c.27-.88,1.35-1.2,2.26-1.37A186.82,186.82,0,0,1,87.88,87.2"/><path id="Trazado_298" data-name="Trazado 298" class="cls-14" d="M90.06,47.53c-2.54-6.16-9-4.88-9.28-8.36s1.91-6.65-1.94-8.5-5.71.35-5.71.35l3,12.08a10.76,10.76,0,0,0-3.48-4.47s1.91,5.49.66,6.52S61,48.24,63.39,55.73a23.64,23.64,0,0,0,8.3,11.45s5.44-17.81,5-22l2.91,11.66,9.55,4.61s3.46-7.8.92-14"/><path id="Trazado_299" data-name="Trazado 299" class="cls-7" d="M72.19,74.77a32.58,32.58,0,0,0,6.16,5.8,67.38,67.38,0,0,0,7.18,5l-16.88,3.8S71,80.19,72.19,74.77ZM85.13,44.26c.38,0,.78.46,1.18,1.29a32.29,32.29,0,0,1,1.82,5.83H88a1.9,1.9,0,0,0-.78.11c-.8.27-1.58.58-2.35.92-.53.24-1,.48-1.56.75l2.43,1.34a5.66,5.66,0,0,1,.18.93c.35,3.34-7,13.19-4.9,16.65.24.41.58.9,1,1.43H72.74A15.79,15.79,0,0,0,73,71.9c.17-1.88-1.54-6-2.61-8.44l-2.94,2.41s-.73-17.36,1.65-18.55l.23-.1.06,0,.17-.05h.07l.16,0h.07l.17,0h.29l.2,0h0l.22,0h0l.23,0v.13l0,.13a10.17,10.17,0,0,0,.73,2.35l.78.46a3.73,3.73,0,0,0-.13.73,5.69,5.69,0,0,0,.89,1.07c1.19,1.1,2.78,1.42,4.67-.06a16.83,16.83,0,0,0,3.26-3.58,21.15,21.15,0,0,0,2-3.68l.31-.12.13,0,.5-.16h0a3.15,3.15,0,0,1,.42-.09l.06,0Z"/><path id="Trazado_300" data-name="Trazado 300" class="cls-15" d="M91,84.62l0-.05,0,0-.06-.07-.07-.07-.06-.07-.09-.1-.06-.07L90.4,84l0,0-.58-.65-.63-.72h0l-.29-.34v0l-.31-.35,0,0c-1.37-1.58-3.09-3.61-4.6-5.5-.29-.37-.58-.73-.85-1.09h0l-.3-.4,0-.05-.27-.37,0-.06L82.15,74l0-.05-.25-.36H72.72q-.15.75-.36,1.68h0a32.71,32.71,0,0,0,6.18,5.63,68.85,68.85,0,0,0,7.2,4.87h0L91,84.67l0,0"/><g id="Grupo_77" data-name="Grupo 77"><path id="Trazado_301" data-name="Trazado 301" class="cls-16" d="M82.63,44.67l.25-.1-.25.1"/><path id="Trazado_302" data-name="Trazado 302" class="cls-16" d="M86,45c-.46-.93-.94-1.45-1.44-1.43.47,0,.95.51,1.44,1.43"/><path id="Trazado_303" data-name="Trazado 303" class="cls-16" d="M86.52,51.54a21,21,0,0,0-2,.94c-.47.23-.92.49-1.37.76l2.12,1.35,2.9,1.85c-.32-1.78-.62-3.48-.92-5a1.48,1.48,0,0,0-.69.11"/><path id="Trazado_304" data-name="Trazado 304" class="cls-16" d="M73.62,53.31c1.13,1.15,2.65,1.48,4.46-.07a16.68,16.68,0,0,0,3.12-3.73,21.72,21.72,0,0,0,1.91-3.83,23.07,23.07,0,0,0-5,3.41l-1-11.79-4.63-5.94S70.06,37.73,70.22,42a.91.91,0,0,0,.93.88h.07a16.42,16.42,0,0,0,2.87-.68c.41-.13.87-.29,1.36-.48a7.63,7.63,0,0,1-1.07,1.83v0A21.08,21.08,0,0,1,75,48.88c-.26,1.55-1.84-.15-3.57-.65a1.24,1.24,0,0,0,0,.27,9.39,9.39,0,0,0,2.16,4.81"/><path id="Trazado_305" data-name="Trazado 305" class="cls-16" d="M81.63,54.32l-5,4.27,5-4.3-.05,0"/></g><path id="Trazado_307" data-name="Trazado 307" class="cls-7" d="M97.49,88c-8.6-2.74-30.86-15.81-30.86-15.81C68.14,65.79,77.43,50,77.43,50s23.51,14.27,29.32,20.89c0,0-7.58,17.6-9.26,17.07"/><path id="Trazado_308" data-name="Trazado 308" class="cls-6" d="M70.26,66.54A18.94,18.94,0,0,0,76,63.22a17.37,17.37,0,0,0,2.44-2.41,20.94,20.94,0,0,0,1.18-2.6,5.12,5.12,0,0,1,2-1.92c.68-.41,1.44-.53,1.64-1.39a1.77,1.77,0,0,1,.58-1c-4.06-2.74-7-4.64-7-4.64S70.25,61,67.35,68.62a8.83,8.83,0,0,1,2.91-2.08"/><path id="Trazado_309" data-name="Trazado 309" class="cls-6" d="M96.52,74.52c-4,1.43-7.31,4.27-11.67,4.81-4.7.59-8.24-2.1-11.54-5.18C71.65,72.61,70,71,67.86,70.21l-.54-.16a23.16,23.16,0,0,0-.69,2.29S88.75,85.84,97.3,88.66c1.26.42,5.83-9.76,8-14.83a15,15,0,0,0-8.8.7"/><path id="Trazado_310" data-name="Trazado 310" class="cls-16" d="M83.39,53.09l2,12.67S74.61,64.5,73.2,64.66s-2.27,2.81-2.27,2.81,19.2,5.69,20,4.59c.49-.72-1-12.67-2.75-20.64"/><path id="Trazado_311" data-name="Trazado 311" class="cls-17" d="M78.1,64.65a46.27,46.27,0,0,0-5-.32c-1.36.15-2.18,2.6-2.18,2.6s2.73.78,6.13,1.68c.37-1.31.73-2.63,1-4"/><path id="Trazado_312" data-name="Trazado 312" class="cls-16" d="M68.5,48.56s-2.77,13.63.28,23.14,10.9-19.2,10.9-19.2l2.52.36a1.91,1.91,0,0,0-.86-2.56l-.27-.11c-2-.92-2.24-.22-3.43.81S71,64.56,71,64.56s.56-12.6.88-13.67"/><path id="Trazado_313" data-name="Trazado 313" class="cls-18" d="M77.79,51.73A5.64,5.64,0,0,1,81,49.49c-1.5-.56-1.75,0-2.76.9A20.47,20.47,0,0,0,76,54.29c.59-.87,1.18-1.74,1.84-2.56"/><path id="Trazado_314" data-name="Trazado 314" class="cls-19" d="M55.89,90.11q-.36-.35-.72-.72.36.38.72.72"/><path id="Trazado_315" data-name="Trazado 315" class="cls-20" d="M99,87c3.43-1.6,6.58-3.42,8.53-6.81a10,10,0,0,0,1.4-4.64,3.19,3.19,0,0,0-.6-.38c-5.53-2.7-13.37,1.62-16.23,3.78-2.6,2-12.8,7.55-14.54,8.5C75.79,86.54,65.59,81,63,79c-2.86-2.16-10.7-6.48-16.23-3.78-4.12,2,.19,9.32,6.63,14.18l.2.09c3.52,1.37,7.22,1.15,10.9,1.38a11.61,11.61,0,0,1,5.88,1.64c.86.59,1.64,1.25,2.43,1.91a32.71,32.71,0,0,0,4.73-.82,30.63,30.63,0,0,0,3.28.64,41.62,41.62,0,0,1,5.42-2.62C90.46,90,94.84,89,99,87"/><path id="Trazado_316" data-name="Trazado 316" class="cls-19" d="M53.74,89.39,53,88.68l.72.71"/><path id="Trazado_317" data-name="Trazado 317" class="cls-19" d="M109.66,74.41a5.17,5.17,0,0,1,.64.6,5.17,5.17,0,0,0-.64-.6"/><path id="Trazado_318" data-name="Trazado 318" class="cls-19" d="M110.71,76.5c.74,1.23.24,3-1.09,5,1.33-2,1.83-3.78,1.09-5"/><path id="Trazado_319" data-name="Trazado 319" class="cls-21" d="M110,75.94a.35.35,0,0,0,0-.08,2.32,2.32,0,0,0-.31-.46h0a2.42,2.42,0,0,0-.33-.31,0,0,0,0,0,0,0h0a10.17,10.17,0,0,1-1.41,4.73c-2,3.45-5.14,5.3-8.6,6.93-4.18,2-8.6,3-12.87,4.66A43.19,43.19,0,0,0,81,94.06H81l.77.1h0c.27,0,.56.07.85.09h.08l.87.07h.1l.93,0h1.72l.75,0h.18l.8-.05h0l.83-.07.21,0,.7-.09.16,0,.84-.13.21,0,.69-.13.22,0,.86-.19.16,0,.74-.19.24-.07.89-.26q.42-.14.84-.3l0,0,.8-.32.08,0L97.4,92l.1,0c.25-.12.51-.25.76-.39l.11,0,.74-.42.11-.06.73-.45.11-.07c.24-.16.48-.31.72-.48l.11-.07.7-.5.1-.07c.24-.17.47-.35.7-.53l.08-.06.7-.57,0,0,.69-.6,0,0c.47-.43.93-.86,1.37-1.31h0c.22-.22.43-.44.64-.67l0,0c.2-.21.39-.43.58-.66l0,0,.55-.66,0,0q.27-.33.51-.66l0,0,.47-.65,0,0c.15-.22.3-.44.43-.66l0,0q.21-.33.39-.66h0c1.21-2.16,1.67-4.14,1-5.49"/><path id="Trazado_320" data-name="Trazado 320" class="cls-21" d="M64.5,90.1c-3.81-.22-7.63,0-11.26-1.34L53,88.68h0l.14.09.56.38.24.16.81.52h0l.9.52h0l.9.49h0l.9.43,0,0,.91.4h0l.92.35h0l1,.31.81.22.26.07.56.14.28.07.56.12.25,0,.73.14h.06l.79.13.22,0,.56.07.26,0,.54.06.23,0c.22,0,.45,0,.67.06h.08l.74,0h.18l.56,0h1.61l.7,0h.09l.57,0h.15l.52,0h.13l.6,0h0c-.81-.63-1.62-1.28-2.51-1.85a12.64,12.64,0,0,0-6.07-1.59"/><path id="Trazado_321" data-name="Trazado 321" class="cls-16" d="M80.25,93.87S66.49,96,66.1,95.83s-.49-2.72,3.42-3,5.15-2.85,6.87-2.74,3.86,3.76,3.86,3.76"/><path id="Trazado_322" data-name="Trazado 322" class="cls-17" d="M75.9,93.71c-1.68-.16-3.3.79-4.93,1.06a15.18,15.18,0,0,1-4.85-.12c-.32.57-.2,1.1,0,1.18s8.32-1,12-1.49a7,7,0,0,0-2.19-.63"/><path id="Trazado_323" data-name="Trazado 323" class="cls-22" d="M61.92,139.67a.54.54,0,0,1,.1.46.54.54,0,0,0-.1-.46"/><path id="Trazado_324" data-name="Trazado 324" class="cls-22" d="M50.87,142.87l.72-.21-.72.21"/><path id="Trazado_325" data-name="Trazado 325" class="cls-14" d="M55.94,140.49a48.91,48.91,0,0,0,6.4-1.66c-.74-.68-4.36-1.26-10,.1.5.72,1,1.52,1.28,2,.79-.16,1.57-.31,2.35-.48"/><path id="Trazado_326" data-name="Trazado 326" class="cls-22" d="M61.62,139.54c-.42.23-.91.47-1.43.72.52-.25,1-.49,1.43-.72"/><path id="Trazado_327" data-name="Trazado 327" class="cls-22" d="M61.62,140.23c.49-.2,1-.42,1.43-.66h0c-.47.24-.94.46-1.43.66"/><path id="Trazado_328" data-name="Trazado 328" class="cls-5" d="M61.56,138.92h0l-.08-.08h0A55.44,55.44,0,0,1,55,140.33l-2.38.43c-.31-.47-.79-1.18-1.31-1.83s-1.3-1.48-1.74-1.53c-1.07-.13-7.34,3.1-6.48,4.51.55.91,4.49.38,7.22-.11h0l.54-.1.54-.1.3-.06,1.47-.29.42-.08,2.25-.46c.62-.13,1.24-.26,1.83-.4l1.08-.24c.52-.13,1-.24,1.41-.36s.77-.21,1-.3h0l.16-.07.05,0a.18.18,0,0,0,.07,0l0,0,0,0,0,0s0,0,0,0a.23.23,0,0,0,0-.21"/><path id="Trazado_329" data-name="Trazado 329" class="cls-13" d="M44.54,142.41a16.64,16.64,0,0,1,6.33-4.58,1.44,1.44,0,0,0-.72-.43c-1-.13-7.2,3.17-6.36,4.61a1.14,1.14,0,0,0,.75.4"/><path id="Trazado_330" data-name="Trazado 330" class="cls-22" d="M71.92,141.12a.49.49,0,0,1,.17.44.49.49,0,0,0-.17-.44"/><path id="Trazado_331" data-name="Trazado 331" class="cls-22" d="M60.9,145.1l.72-.37-.72.37"/><path id="Trazado_332" data-name="Trazado 332" class="cls-14" d="M65.49,143.76a51.12,51.12,0,0,0,6.16-2.48c-.84-.53-4.54-.57-10,1.53.61.61,1.21,1.3,1.58,1.75.77-.26,1.53-.52,2.29-.8"/><path id="Trazado_333" data-name="Trazado 333" class="cls-22" d="M70.22,142.41c-.42.22-.91.46-1.44.71.53-.25,1-.5,1.44-.71"/><path id="Trazado_334" data-name="Trazado 334" class="cls-22" d="M70.22,142.41c.58-.27,1.06-.51,1.43-.72h0c-.37.21-.85.45-1.43.72"/><path id="Trazado_335" data-name="Trazado 335" class="cls-5" d="M70.85,141.05h0l-.09-.07a46.82,46.82,0,0,1-5.89,2.6l-2.18.83c-.37-.48-.93-1.19-1.52-1.84s-1.45-1.45-1.88-1.44c-1,0-6.45,4.52-5.42,6,.66.92,4.3-.24,6.8-1.19h0l.49-.19.5-.2.28-.11,1.33-.53.39-.15,2-.84c.56-.24,1.13-.47,1.67-.71l1-.43c.47-.21.9-.41,1.28-.6s.68-.35.92-.49h0l.14-.1,0,0s0,0,.06-.06l0,0,0-.05s0,0,0-.06v0a.29.29,0,0,0-.08-.23"/><path id="Trazado_336" data-name="Trazado 336" class="cls-13" d="M55,146.71a18.69,18.69,0,0,1,5.21-5.42,1.62,1.62,0,0,0-.75-.32c-1.06,0-6.62,4.12-5.57,5.43a1.46,1.46,0,0,0,1.1.31"/></g></g></g></g></svg>