<svg xmlns="http://www.w3.org/2000/svg" viewBox="0 0 111.6 34.22"><defs><style>.cls-1{fill:#ededed;}</style></defs><g id="Layer_2" data-name="Layer 2"><g id="Layer_1-2" data-name="Layer 1"><g id="LANDING_PAGE_-_10_FREE_TIPS_TO_SLEEP" data-name="LANDING PAGE - 10 FREE TIPS TO SLEEP"><g id="Grupo_90" data-name="Grupo 90"><g id="Grupo_71" data-name="Grupo 71"><g id="Grupo_68" data-name="Grupo 68"><g id="Grupo_67" data-name="Grupo 67"><path id="Trazado_226" data-name="Trazado 226" class="cls-1" d="M6.77,34.21H6a10.36,10.36,0,0,1-1.67-.14,5.6,5.6,0,0,1-1.48-.49,5.07,5.07,0,0,1-1.25-.91,4.83,4.83,0,0,1-.91-1.25,5.22,5.22,0,0,1-.49-1.49A11.65,11.65,0,0,1,0,28.25c0-.19,0-.82,0-.82V6.77S0,6.15,0,6A11.65,11.65,0,0,1,.16,4.3,5.22,5.22,0,0,1,.65,2.81a4.66,4.66,0,0,1,.91-1.25A4.93,4.93,0,0,1,2.81.64,5,5,0,0,1,4.29.16,11.66,11.66,0,0,1,6,0h99.67a11.65,11.65,0,0,1,1.67.15A5,5,0,0,1,111,2.81a5.13,5.13,0,0,1,.48,1.48A13.45,13.45,0,0,1,111.6,6v22.3a13.16,13.16,0,0,1-.16,1.65,5,5,0,0,1-.48,1.5,5,5,0,0,1-.91,1.24,4.66,4.66,0,0,1-1.25.91,5.22,5.22,0,0,1-1.49.49,11.78,11.78,0,0,1-1.67.15H6.77Z"/></g><g id="_Group_" data-name=" Group "><g id="_Group_2" data-name=" Group 2"><g id="_Group_3" data-name=" Group 3"><path id="_Path_" data-name=" Path " d="M21.58,17a4.6,4.6,0,0,1,2.19-3.86,4.72,4.72,0,0,0-3.71-2c-1.56-.16-3.08.93-3.87.93s-2-.91-3.36-.89a4.94,4.94,0,0,0-4.16,2.54c-1.8,3.12-.46,7.69,1.27,10.21.86,1.23,1.87,2.61,3.18,2.56s1.78-.82,3.33-.82,2,.82,3.34.79,2.26-1.24,3.09-2.48a10,10,0,0,0,1.41-2.88A4.45,4.45,0,0,1,21.58,17Z"/><path id="_Path_2" data-name=" Path 2" d="M19,9.48a4.53,4.53,0,0,0,1-3.24,4.62,4.62,0,0,0-3,1.54A4.26,4.26,0,0,0,16,10.91,3.85,3.85,0,0,0,19,9.48Z"/></g></g></g></g><g id="_Group_4" data-name=" Group 4"><g id="Grupo_69" data-name="Grupo 69"><path id="Trazado_227" data-name="Trazado 227" d="M31.08,12.37V7.78H29.4V7h4.19v.75H31.91v4.59Z"/><path id="Trazado_228" data-name="Trazado 228" d="M37.44,11.28a1.63,1.63,0,0,1-1.75,1.16,1.82,1.82,0,0,1-1.87-1.78,1.42,1.42,0,0,1,0-.29,1.84,1.84,0,0,1,1.6-2.08,1.06,1.06,0,0,1,.25,0c1.12,0,1.8.77,1.8,2v.27H34.64v0a1.07,1.07,0,0,0,1,1.15h.1a1,1,0,0,0,1-.49ZM34.64,10h2a1,1,0,0,0-.9-1h-.09a1,1,0,0,0-1,1Zm.57-2.32.93-1.27h.93L36,7.67Z"/><path id="Trazado_229" data-name="Trazado 229" d="M38.59,6.77h.8v5.6h-.8Z"/><path id="Trazado_230" data-name="Trazado 230" d="M44.1,11.28a1.65,1.65,0,0,1-1.75,1.17,1.83,1.83,0,0,1-1.87-1.79,1.43,1.43,0,0,1,0-.29,1.86,1.86,0,0,1,1.59-2.09l.27,0c1.12,0,1.8.77,1.8,2v.28H41.3v0a1.07,1.07,0,0,0,1,1.15h.11a1,1,0,0,0,.95-.49ZM41.3,10h2a1,1,0,0,0-.9-1h-.09a1,1,0,0,0-1,1Zm.57-2.31L42.8,6.4h.93l-1,1.27Z"/><path id="Trazado_231" data-name="Trazado 231" d="M47.85,9.66a.89.89,0,0,0-1-.69c-.66,0-1.07.51-1.07,1.37s.41,1.39,1.07,1.39a.87.87,0,0,0,1-.66h.78a1.58,1.58,0,0,1-1.73,1.37A1.84,1.84,0,0,1,45,10.65c0-.1,0-.2,0-.31a1.85,1.85,0,0,1,1.58-2.06,1.89,1.89,0,0,1,2,1.38Z"/><path id="Trazado_232" data-name="Trazado 232" d="M49.68,6.77h.79V9h.06a1.25,1.25,0,0,1,1.23-.73,1.33,1.33,0,0,1,1.39,1.26,1,1,0,0,1,0,.24v2.6h-.8V10c0-.64-.3-1-.86-1a.93.93,0,0,0-1,.86.43.43,0,0,0,0,.16v2.35h-.8Z"/><path id="Trazado_233" data-name="Trazado 233" d="M54.14,11.23c0-.73.54-1.15,1.5-1.2l1.1-.07V9.62c0-.43-.29-.67-.83-.67s-.75.16-.84.45H54.3c.08-.69.73-1.14,1.65-1.14s1.58.5,1.58,1.36v2.75h-.77V11.8H56.7a1.34,1.34,0,0,1-1.21.63,1.22,1.22,0,0,1-1.34-1.08v-.12Zm2.59-.35v-.33l-1,.06c-.56,0-.81.23-.81.58s.32.58.75.58a1,1,0,0,0,1-.85v0Z"/><path id="Trazado_234" data-name="Trazado 234" d="M58.77,8.34h.77V9h.05a1.11,1.11,0,0,1,1.09-.69,1.47,1.47,0,0,1,.36,0v.78A2.3,2.3,0,0,0,60.59,9a.94.94,0,0,0-1,.86.28.28,0,0,0,0,.09v2.38h-.79Z"/><path id="Trazado_235" data-name="Trazado 235" d="M61.77,12.77h.81c.07.29.4.48.94.48s1.06-.31,1.06-.85v-.77h-.06a1.39,1.39,0,0,1-1.25.68c-1,0-1.66-.8-1.66-2s.64-2,1.67-2A1.43,1.43,0,0,1,64.55,9h.06V8.34h.76V12.4c0,.92-.72,1.51-1.86,1.51S61.85,13.45,61.77,12.77Zm2.82-2.47c0-.8-.42-1.31-1.09-1.31s-1.07.51-1.07,1.31.38,1.32,1.07,1.32S64.59,11.11,64.59,10.3Z"/><path id="Trazado_236" data-name="Trazado 236" d="M70,11.28a1.62,1.62,0,0,1-1.74,1.16,1.83,1.83,0,0,1-1.88-1.78,1.37,1.37,0,0,1,0-.29A1.85,1.85,0,0,1,68,8.28l.26,0c1.12,0,1.8.77,1.8,2v.28H67.25v0a1.06,1.06,0,0,0,1,1.15h.1a1,1,0,0,0,1-.49ZM67.24,10h2a1,1,0,0,0-.9-1h-.09a1,1,0,0,0-1,1v0Z"/><path id="Trazado_237" data-name="Trazado 237" d="M71.16,8.34h.76V9H72a1.11,1.11,0,0,1,1.09-.69,1.34,1.34,0,0,1,.35,0v.78A2.12,2.12,0,0,0,73,9a.94.94,0,0,0-1,.86A.28.28,0,0,0,72,10v2.38h-.79Z"/><path id="Trazado_238" data-name="Trazado 238" d="M76.29,10.35c0-1.27.65-2.08,1.67-2.08A1.34,1.34,0,0,1,79.2,9h0V6.77h.8v5.6h-.76v-.64h-.06a1.45,1.45,0,0,1-1.27.7C76.94,12.43,76.29,11.63,76.29,10.35Zm.82,0c0,.85.4,1.37,1.08,1.37s1.08-.52,1.08-1.37S78.85,9,78.19,9,77.11,9.5,77.11,10.35Z"/><path id="Trazado_239" data-name="Trazado 239" d="M81.13,11.23c0-.73.54-1.15,1.5-1.2L83.72,10V9.62c0-.43-.28-.67-.83-.67s-.75.16-.84.45h-.77c.08-.69.73-1.14,1.65-1.14s1.58.5,1.58,1.36v2.75h-.77V11.8h-.06a1.34,1.34,0,0,1-1.21.63,1.22,1.22,0,0,1-1.34-1.08v-.12Zm2.58-.35v-.33l-1,.06c-.56,0-.81.23-.81.58s.32.58.75.58a1,1,0,0,0,1-.85v0Z"/><path id="Trazado_240" data-name="Trazado 240" d="M85.75,8.34h.76V9h.06a1.21,1.21,0,0,1,1.2-.72,1.31,1.31,0,0,1,1.4,1.21.94.94,0,0,1,0,.29v2.61h-.79V10c0-.65-.28-1-.87-1a.93.93,0,0,0-1,.88.66.66,0,0,0,0,.14v2.36h-.79Z"/><path id="Trazado_241" data-name="Trazado 241" d="M91.87,8.26c.91,0,1.5.42,1.58,1.13h-.77c-.07-.3-.36-.48-.81-.48s-.78.21-.78.52.2.4.64.5l.67.15c.77.18,1.12.51,1.12,1.1,0,.76-.7,1.27-1.66,1.27S90.27,12,90.2,11.3H91a.81.81,0,0,0,.88.5c.5,0,.85-.22.85-.54s-.19-.4-.6-.5l-.7-.16c-.76-.18-1.12-.52-1.12-1.12S91,8.26,91.87,8.26Z"/></g></g><g id="Grupo_70" data-name="Grupo 70"><path id="Trazado_242" data-name="Trazado 242" d="M30.7,15.39h1.66V26.5H30.7Z"/><path id="Trazado_243" data-name="Trazado 243" d="M34.36,19.45l.91-4.06h1.62l-1.1,4.06Z"/><path id="Trazado_244" data-name="Trazado 244" d="M43.17,23.49H38.94l-1,3H36.13l4-11.1H42l4,11.1H44.19Zm-3.8-1.38h3.36l-1.65-4.87h0Z"/><path id="Trazado_245" data-name="Trazado 245" d="M54.68,22.45c0,2.51-1.35,4.13-3.38,4.13a2.73,2.73,0,0,1-2.56-1.42h0v4H47.05V18.4h1.6v1.34h0a2.89,2.89,0,0,1,2.57-1.43C53.32,18.31,54.68,19.94,54.68,22.45Zm-1.71,0c0-1.64-.85-2.72-2.14-2.72s-2.13,1.1-2.13,2.72.86,2.72,2.13,2.72S53,24.1,53,22.45Z"/><path id="Trazado_246" data-name="Trazado 246" d="M63.59,22.45c0,2.51-1.35,4.13-3.38,4.13a2.77,2.77,0,0,1-2.55-1.42h0v4H56V18.4h1.61v1.34h0a2.89,2.89,0,0,1,2.58-1.43C62.23,18.31,63.59,19.94,63.59,22.45Zm-1.71,0c0-1.64-.85-2.72-2.14-2.72s-2.13,1.1-2.13,2.72.86,2.72,2.13,2.72,2.14-1.07,2.14-2.72Z"/><path id="Trazado_247" data-name="Trazado 247" d="M69.48,23.4c.12,1.1,1.19,1.83,2.65,1.83s2.41-.73,2.41-1.72-.61-1.38-2.05-1.73l-1.44-.35c-2-.49-3-1.45-3-3,0-1.92,1.67-3.24,4-3.24s4,1.32,4,3.24H74.44c-.1-1.11-1-1.78-2.35-1.78s-2.26.67-2.26,1.66c0,.79.58,1.25,2,1.6l1.22.3c2.28.54,3.23,1.45,3.23,3.08,0,2.08-1.66,3.38-4.29,3.38-2.46,0-4.13-1.27-4.24-3.28Z"/><path id="Trazado_248" data-name="Trazado 248" d="M79.89,16.48V18.4h1.54v1.31H79.89v4.47c0,.69.3,1,1,1l.55,0v1.31a4.86,4.86,0,0,1-.93.07c-1.64,0-2.27-.61-2.27-2.18V19.71H77V18.4h1.17V16.48Z"/><path id="Trazado_249" data-name="Trazado 249" d="M82.31,22.45c0-2.55,1.5-4.15,3.85-4.15S90,19.9,90,22.45s-1.49,4.15-3.84,4.15S82.31,25,82.31,22.45Zm6,0c0-1.75-.8-2.78-2.15-2.78S84,20.71,84,22.45s.8,2.78,2.15,2.78,2.15-1,2.15-2.78Z"/><path id="Trazado_250" data-name="Trazado 250" d="M91.37,18.4H93v1.37h0a2,2,0,0,1,2-1.46,2.76,2.76,0,0,1,.57.06v1.56a2.09,2.09,0,0,0-.75-.1A1.67,1.67,0,0,0,93,21.43a2.17,2.17,0,0,0,0,.26v4.8H91.37Z"/><path id="Trazado_251" data-name="Trazado 251" d="M103.17,24.12c-.22,1.47-1.65,2.48-3.48,2.48-2.36,0-3.82-1.58-3.82-4.12s1.47-4.18,3.75-4.18,3.65,1.54,3.65,4v.57H97.55V23a2.09,2.09,0,0,0,1.91,2.28h.27a1.84,1.84,0,0,0,1.87-1.14ZM97.55,21.7h4a2,2,0,0,0-1.83-2.05h-.15a2.05,2.05,0,0,0-2.06,2v0Z"/></g></g></g></g></g></g></svg>