<svg xmlns="http://www.w3.org/2000/svg" xmlns:xlink="http://www.w3.org/1999/xlink" viewBox="0 0 103.3 34.21"><defs><style>.cls-1{fill:none;}.cls-2{fill:#ededed;}.cls-3{clip-path:url(#clip-path);}.cls-4{fill:url(#linear-gradient);}.cls-5{fill:url(#linear-gradient-2);}.cls-6{fill:url(#linear-gradient-3);}.cls-7{fill:url(#linear-gradient-4);}.cls-8{fill:#041421;}.cls-10,.cls-9{isolation:isolate;}.cls-10{font-size:4px;font-family:ArialMT, Arial;}.cls-11{letter-spacing:-0.06em;}.cls-12{letter-spacing:-0.02em;}</style><clipPath id="clip-path"><path class="cls-1" d="M22.39,15.06l-4.66-2.72-9-5.25c-.5-.3-1-.12-1,.49V29c0,.46.36.65.79.4L17.72,24l4.66-2.73,4.48-2.61c.52-.31.47-.73,0-1S22.39,15.06,22.39,15.06Z"/></clipPath><linearGradient id="linear-gradient" x1="-681.74" y1="81.84" x2="-681.74" y2="81.93" gradientTransform="matrix(11.54, 0, 0, -23.17, 7879.41, 1938.07)" gradientUnits="userSpaceOnUse"><stop offset="0" stop-color="#257cb0"/><stop offset="0.29" stop-color="#4a93b5"/><stop offset="0.77" stop-color="#78bcbb"/><stop offset="1" stop-color="#89cfbd"/></linearGradient><linearGradient id="linear-gradient-2" x1="-690.83" y1="83.29" x2="-690.74" y2="83.29" gradientTransform="matrix(14.64, 0, 0, -11.67, 10136.21, 984.21)" gradientUnits="userSpaceOnUse"><stop offset="0" stop-color="#52c1ad"/><stop offset="1" stop-color="#dee89a"/></linearGradient><linearGradient id="linear-gradient-3" x1="-691.43" y1="81.85" x2="-691.43" y2="81.93" gradientTransform="matrix(14.64, 0, 0, -11.67, 10135.5, 995.97)" gradientUnits="userSpaceOnUse"><stop offset="0" stop-color="#ec413d"/><stop offset="0.17" stop-color="#da4452"/><stop offset="0.57" stop-color="#b0487a"/><stop offset="0.86" stop-color="#954a92"/><stop offset="1" stop-color="#8a4a9d"/></linearGradient><linearGradient id="linear-gradient-4" x1="-664.81" y1="80.36" x2="-664.81" y2="80.44" gradientTransform="matrix(8.42, 0, 0, -6.22, 5623.21, 541.13)" gradientUnits="userSpaceOnUse"><stop offset="0" stop-color="#f58879"/><stop offset="0.12" stop-color="#f69079"/><stop offset="0.71" stop-color="#fcb877"/><stop offset="1" stop-color="#fec874"/></linearGradient></defs><g id="Layer_2" data-name="Layer 2"><g id="Layer_1-2" data-name="Layer 1"><g id="LANDING_PAGE_-_10_FREE_TIPS_TO_SLEEP" data-name="LANDING PAGE - 10 FREE TIPS TO SLEEP"><g id="Grupo_90" data-name="Grupo 90"><g id="Grupo_72" data-name="Grupo 72"><g id="google-play-download-android-app"><path id="Trazado_213" data-name="Trazado 213" class="cls-2" d="M103.3,29.59a4.6,4.6,0,0,1-4.57,4.62H4.57A4.6,4.6,0,0,1,0,29.59v-25A4.6,4.6,0,0,1,4.57,0H98.73a4.6,4.6,0,0,1,4.57,4.62v25Z"/><g class="cls-3"><g id="Grupo_45" data-name="Grupo 45"><path id="Trazado_214" data-name="Trazado 214" class="cls-4" d="M7.75,6.59V29.76L19.29,18.17Z"/></g></g><g class="cls-3"><g id="Grupo_46" data-name="Grupo 46"><path id="Trazado_216" data-name="Trazado 216" class="cls-5" d="M22.39,15.06l-4.66-2.72L7.75,6.5v.09L19.29,18.17Z"/></g></g><g class="cls-3"><g id="Grupo_47" data-name="Grupo 47"><path id="Trazado_218" data-name="Trazado 218" class="cls-6" d="M7.75,29.76v.08l10-5.83,4.66-2.73-3.1-3.11Z"/></g></g><g class="cls-3"><g id="Grupo_48-2" data-name="Grupo 48-2"><path id="Trazado_220" data-name="Trazado 220" class="cls-7" d="M22.39,15.06l-3.1,3.11,3.1,3.11,5.32-3.11Z"/></g></g><path id="Trazado_222" data-name="Trazado 222" class="cls-8" d="M80.39,22.7a2.88,2.88,0,0,1-1.19-.24,2.26,2.26,0,0,1-.9-.75h-.07a8.42,8.42,0,0,1,.07,1.12V25.6h-1V15.84h.82l.13.92h0a2.47,2.47,0,0,1,.9-.8,2.7,2.7,0,0,1,1.19-.24,2.4,2.4,0,0,1,2,.91,4.94,4.94,0,0,1,0,5.15A2.45,2.45,0,0,1,80.39,22.7Zm-.14-6.11a1.75,1.75,0,0,0-1.48.57A3,3,0,0,0,78.3,19v.22a3.48,3.48,0,0,0,.47,2,1.78,1.78,0,0,0,1.5.61,1.56,1.56,0,0,0,1.35-.71,3.33,3.33,0,0,0,.49-1.95,3.28,3.28,0,0,0-.49-1.93A1.56,1.56,0,0,0,80.25,16.59Zm5.24,6h-1V13h1Zm5.79,0-.2-1h0a2.93,2.93,0,0,1-1,.86,3.06,3.06,0,0,1-1.24.22,2.25,2.25,0,0,1-1.55-.51,1.93,1.93,0,0,1-.56-1.47c0-1.36,1.08-2.08,3.22-2.14l1.13,0v-.42A1.69,1.69,0,0,0,90.71,17a1.39,1.39,0,0,0-1.08-.38,4.41,4.41,0,0,0-1.88.52l-.31-.78a4.67,4.67,0,0,1,2.25-.58,2.55,2.55,0,0,1,1.77.53A2.26,2.26,0,0,1,92,18v4.6ZM89,21.86a2,2,0,0,0,1.48-.52A1.94,1.94,0,0,0,91,19.87v-.6l-1,0a3.59,3.59,0,0,0-1.73.38,1.12,1.12,0,0,0-.53,1,1.07,1.07,0,0,0,.33.84,1.35,1.35,0,0,0,.93.29Zm3.61-6h1.08l1.46,3.84a16.09,16.09,0,0,1,.6,1.9h0c0-.21.16-.56.33-1.07s.72-2.06,1.65-4.67h1.08L96,23.52a3.85,3.85,0,0,1-1,1.61,2.16,2.16,0,0,1-1.4.48,4.7,4.7,0,0,1-.91-.1v-.82a3.81,3.81,0,0,0,.75.07,1.55,1.55,0,0,0,1.48-1.18l.37-1Zm-30.89.63a2.31,2.31,0,0,1,.57,3.21,2.36,2.36,0,0,1-.75.69,1,1,0,0,0-.39.69.74.74,0,0,0,.36.6l.5.4a2.45,2.45,0,0,1,1.17,2c0,1.33-1.27,2.67-3.66,2.67-2,0-3-1-3-2A2,2,0,0,1,57.6,23a6,6,0,0,1,2.65-.65,1.5,1.5,0,0,1-.41-1A1.18,1.18,0,0,1,60,20.8l-.45,0a2.21,2.21,0,0,1-2.31-2.11v-.1a2.54,2.54,0,0,1,.89-1.89A3.73,3.73,0,0,1,60.6,16h2.87l-.89.5Zm-1,6.26a1.72,1.72,0,0,0-.32,0,5.5,5.5,0,0,0-1.46.23,1.56,1.56,0,0,0-1.2,1.45c0,1,1,1.72,2.45,1.72,1.33,0,2-.65,2-1.52s-.46-1.1-1.52-1.87Zm.4-2.68a1.45,1.45,0,0,0,.35-1c0-1-.6-2.59-1.76-2.59a1.27,1.27,0,0,0-1,.46,1.62,1.62,0,0,0-.31,1c0,.95.55,2.51,1.74,2.51a1.43,1.43,0,0,0,1-.39ZM53,22.5a3.3,3.3,0,0,1-3.39-3.21v-.11a3.46,3.46,0,0,1,3.51-3.42h.09A3.27,3.27,0,0,1,56.48,19v.1a3.41,3.41,0,0,1-3.41,3.42H53Zm1.74-1.14a2.61,2.61,0,0,0,.42-1.56c0-1.24-.59-3.6-2.31-3.6a1.86,1.86,0,0,0-1.25.48,2.1,2.1,0,0,0-.64,1.71c0,1.4.68,3.69,2.36,3.69a1.8,1.8,0,0,0,1.43-.72ZM45.42,22.5A3.3,3.3,0,0,1,42,19.29v-.11a3.45,3.45,0,0,1,3.5-3.42h.1A3.27,3.27,0,0,1,49,19v.1a3.42,3.42,0,0,1-3.41,3.42h-.12Zm1.74-1.14a2.53,2.53,0,0,0,.41-1.56c0-1.24-.58-3.6-2.3-3.6a1.86,1.86,0,0,0-1.25.48,2.1,2.1,0,0,0-.64,1.71c0,1.4.68,3.69,2.36,3.69a1.77,1.77,0,0,0,1.42-.72ZM41,22.28l-2,.47a14.83,14.83,0,0,1-2.3.24,5,5,0,0,1-5.32-4.67c0-.15,0-.3,0-.45a5.32,5.32,0,0,1,5.33-5.31l.32,0a7.79,7.79,0,0,1,2.14.3,5.46,5.46,0,0,1,1.84.87l-1.16,1.12-.49.11.35-.56a4,4,0,0,0-3-1.33A3.88,3.88,0,0,0,32.8,17a2.62,2.62,0,0,0,0,.28,5,5,0,0,0,4.78,5.16h.17a4.16,4.16,0,0,0,1.77-.36V19.79l-2.11.12,1.12-.61h3l-.36.35a.31.31,0,0,0-.14.23c0,.12,0,.54,0,.68v1.72Z"/><path id="Trazado_223" data-name="Trazado 223" class="cls-8" d="M66.14,21.87c-.46,0-.56-.13-.56-.68v-8a.28.28,0,0,1,0-.09c0-.49.2-.58.62-.83h-2l-1,.51h1.06v8.74c0,.28,0,.32-.37.74h2.47l.52-.31Zm5.68.13c-.15.08-.3.18-.46.25a3.09,3.09,0,0,1-1.34.27A2.92,2.92,0,0,1,68.17,22a3.65,3.65,0,0,1-1.41-3,3.16,3.16,0,0,1,3.08-3.25h.09a2.66,2.66,0,0,1,1.43.4,2.27,2.27,0,0,1,1,1.39l-3.26,1.33L68,19a3.11,3.11,0,0,0,2.86,2.82,3.64,3.64,0,0,0,1.7-.49Zm-1.3-4.19c.26-.1.4-.18.4-.38a1.38,1.38,0,0,0-1.37-1.2,1.72,1.72,0,0,0-1.61,1.83s0,.08,0,.12c0,.24,0,.49,0,.74Zm2.64-1.95v.93h-.11v-.93h-.3v-.1h.72v.1Zm1.25.93v-.94h0l-.28.94H74l-.28-.94h0v.94h-.1v-1h.17l.26.83h0l.25-.83h.18v1Z"/><path id="Trazado_224" data-name="Trazado 224" class="cls-8" d="M34.13,9.82h-.7a4.46,4.46,0,0,0-.2-.82h-1a4.46,4.46,0,0,0-.2.82h-.65a14.76,14.76,0,0,1,.51-1.41A10.8,10.8,0,0,0,32.39,7h.82a14,14,0,0,0,.46,1.43A14,14,0,0,1,34.13,9.82Zm-1-1.24a10.26,10.26,0,0,1-.37-1.23h0c0,.06-.13.47-.38,1.23Zm3.8,1.24h-.54a5.45,5.45,0,0,0-.6-1,5.46,5.46,0,0,1-.71-1.24h0a6.36,6.36,0,0,1,.06.87q0,.54,0,1.32H34.6q0-.68,0-1.5c0-.55,0-1,0-1.36h.64a4,4,0,0,0,.54.92,5.9,5.9,0,0,1,.65,1.18h0c0-.3-.05-.59-.05-.88s0-.81,0-1.22h.54c0,.36,0,.81,0,1.36s0,1,0,1.5Zm3.14-1.53a1.61,1.61,0,0,1-.4,1.09,1.37,1.37,0,0,1-1.1.47l-.89,0q0-.66,0-1.5c0-.53,0-1,0-1.36h.9a1.47,1.47,0,0,1,1.13.4,1.34,1.34,0,0,1,.35.95Zm-.59.09a1.09,1.09,0,0,0-.24-.71,1,1,0,0,0-.75-.29l-.25,0c0,.3,0,.6,0,.92s0,.7,0,1a1.33,1.33,0,0,0,.28,0,.82.82,0,0,0,.69-.29,1.16,1.16,0,0,0,.22-.72ZM43,9.82h-.64a4,4,0,0,0-.39-1,.48.48,0,0,0-.43-.18h-.24c0,.37,0,.75,0,1.14h-.6c0-.44,0-.94,0-1.5s0-1,0-1.37h1c.66,0,1,.23,1,.69a.78.78,0,0,1-.57.76v0a.72.72,0,0,1,.38.35A8,8,0,0,1,43,9.82Zm-.81-2c0-.29-.19-.44-.56-.44l-.36,0c0,.23,0,.53,0,.89h.2c.45,0,.68-.16.68-.48Zm3.92.54a1.56,1.56,0,0,1-.41,1.11,1.33,1.33,0,0,1-1,.45,1.23,1.23,0,0,1-.95-.41,1.42,1.42,0,0,1-.39-1,1.52,1.52,0,0,1,.41-1.11,1.33,1.33,0,0,1,1-.45,1.23,1.23,0,0,1,.95.41,1.42,1.42,0,0,1,.38,1Zm-.6.06a1.19,1.19,0,0,0-.23-.75.72.72,0,0,0-.57-.28.65.65,0,0,0-.54.29,1.1,1.1,0,0,0-.22.72,1.12,1.12,0,0,0,.23.75.72.72,0,0,0,.57.29.67.67,0,0,0,.54-.29,1.14,1.14,0,0,0,.21-.73ZM47.3,9.82h-.61q0-.68,0-1.5c0-.55,0-1,0-1.37h.61c0,.37,0,.83,0,1.37s0,1,0,1.5Zm3.15-1.53a1.67,1.67,0,0,1-.4,1.09,1.39,1.39,0,0,1-1.11.47l-.88,0q0-.66,0-1.5c0-.53,0-1,0-1.36H49a1.47,1.47,0,0,1,1.13.4,1.34,1.34,0,0,1,.35.95Zm-.59.09a1.1,1.1,0,0,0-.25-.71.93.93,0,0,0-.74-.29l-.25,0c0,.3,0,.6,0,.92s0,.7,0,1a1.33,1.33,0,0,0,.28,0,.82.82,0,0,0,.69-.29,1.16,1.16,0,0,0,.22-.72Zm4.76,1.44h-.69a4.46,4.46,0,0,0-.2-.82h-1a3.78,3.78,0,0,0-.2.82h-.66a14.76,14.76,0,0,1,.51-1.41A12.47,12.47,0,0,0,52.89,7h.82a10.35,10.35,0,0,0,.46,1.43c.17.47.32.94.45,1.43Zm-1-1.24a12.49,12.49,0,0,1-.37-1.23h0a12.44,12.44,0,0,1-.39,1.23Zm3.53-.87a.84.84,0,0,1-.38.77,1.65,1.65,0,0,1-1,.25h-.14c0,.28,0,.64,0,1.09h-.61q0-.63,0-1.5c0-.52,0-1,0-1.36h1.08a1.22,1.22,0,0,1,.7.18.66.66,0,0,1,.28.58Zm-.56.12c0-.31-.2-.47-.61-.47l-.33,0c0,.28,0,.59,0,.94h.12c.53,0,.79-.16.79-.5Zm3.16-.12a.82.82,0,0,1-.38.77,1.65,1.65,0,0,1-.95.25h-.14c0,.28,0,.64,0,1.09h-.61q0-.63,0-1.5c0-.52,0-1,0-1.36h1.08a1.22,1.22,0,0,1,.7.18.66.66,0,0,1,.28.58Zm-.55.12c0-.31-.21-.47-.62-.47l-.33,0c0,.28,0,.59,0,.94h.12c.53,0,.79-.16.79-.5ZM64,8.34a1.6,1.6,0,0,1-.41,1.12,1.32,1.32,0,0,1-1,.44,1.26,1.26,0,0,1-1-.41,1.41,1.41,0,0,1-.38-1,1.53,1.53,0,0,1,.41-1.12,1.32,1.32,0,0,1,1-.45,1.27,1.27,0,0,1,1,.41,1.42,1.42,0,0,1,.38,1Zm-.6.06a1.14,1.14,0,0,0-.23-.74.73.73,0,0,0-.58-.29.64.64,0,0,0-.53.29,1.13,1.13,0,0,0-.22.73,1.11,1.11,0,0,0,.23.74.72.72,0,0,0,.57.29.67.67,0,0,0,.54-.29,1.12,1.12,0,0,0,.21-.73ZM67,9.82h-.54a4.48,4.48,0,0,0-.6-1,5.46,5.46,0,0,1-.71-1.24h0a8.46,8.46,0,0,1,.05.87q0,.54,0,1.32h-.53q0-.68,0-1.5c0-.55,0-1,0-1.36h.64a4.34,4.34,0,0,0,.54.93,5.56,5.56,0,0,1,.65,1.17h0a8.65,8.65,0,0,1,0-.88c0-.4,0-.81,0-1.22h.54c0,.36,0,.81,0,1.36s0,1,0,1.5Z"/></g><path id="Trazado_253" data-name="Trazado 253" class="cls-2" d="M30.1,4.61h41v6h-41Z"/><g id="android_app_sur" data-name="android app sur" class="cls-9"><text class="cls-10" transform="translate(31.1 9.61)">ANDROID<tspan class="cls-11" x="18.45" y="0"> </tspan><tspan x="19.34" y="0">AP</tspan><tspan class="cls-12" x="24.67" y="0">P</tspan><tspan x="27.27" y="0" xml:space="preserve"> SUR</tspan></text></g></g></g></g></g></g></svg>